<?xml version="1.0" encoding="UTF-8" standalone="no"?>
<svg
   width="1024px"
   height="1024px"
   viewBox="0 0 1024 1024"
   version="1.1"
   id="svg6"
   sodipodi:docname="heart-healthy.svg"
   inkscape:version="1.2.1 (9c6d41e, 2022-07-14)"
   inkscape:export-filename="heart-healthy.png"
   inkscape:export-xdpi="9.375"
   inkscape:export-ydpi="9.375"
   xmlns:inkscape="http://www.inkscape.org/namespaces/inkscape"
   xmlns:sodipodi="http://sodipodi.sourceforge.net/DTD/sodipodi-0.dtd"
   xmlns="http://www.w3.org/2000/svg"
   xmlns:svg="http://www.w3.org/2000/svg">
  <defs
     id="defs10" />
  <sodipodi:namedview
     id="namedview8"
     pagecolor="#ffffff"
     bordercolor="#000000"
     borderopacity="0.25"
     inkscape:showpageshadow="2"
     inkscape:pageopacity="0.0"
     inkscape:pagecheckerboard="true"
     inkscape:deskcolor="#d1d1d1"
     showgrid="false"
     inkscape:zoom="0.65186406"
     inkscape:cx="133.46341"
     inkscape:cy="522.34817"
     inkscape:window-width="1728"
     inkscape:window-height="1027"
     inkscape:window-x="1728"
     inkscape:window-y="62"
     inkscape:window-maximized="0"
     inkscape:current-layer="svg6" />
  <path
     fill="#333333"
     d="m 923.04948,283.63785 a 260.04,260.04 0 0 0 -56.9,-82.8 264.4,264.4 0 0 0 -84,-55.5 265.34,265.34 0 0 0 -102.4,-20.3 c -49.3,0 -97.4,13.5 -139.2,39 -10,6.1 -19.5,12.8 -28.5,20.1 -9,-7.3 -18.5,-14 -28.5,-20.1 -41.8,-25.5 -89.9,-39 -139.2,-39 -35.5,0 -69.9,6.8 -102.4,20.3 -31.4,13 -59.7,31.7 -84,55.5 a 258.44,258.44 0 0 0 -56.9,82.8 c -13.900001,32.3 -21.000001,66.6 -21.000001,101.9 0,33.3 6.8,68 20.300001,103.3 11.3,29.5 27.5,60.1 48.2,91 32.8,48.9 77.9,99.9 133.9,151.6 92.8,85.7 184.7,144.9 188.6,147.3 l 23.7,15.2 c 10.5,6.7 24,6.7 34.5,0 l 23.7,-15.2 c 3.9,-2.5 95.7,-61.6 188.6,-147.3 56,-51.7 101.1,-102.7 133.9,-151.6 20.7,-30.9 37,-61.5 48.2,-91 13.5,-35.3 20.3,-70 20.3,-103.3 0.1,-35.3 -7,-69.6 -20.9,-101.9 z m -411,531.2 c 0,0 -356,-228.1 -356,-429.3 0,-101.9 84.3,-184.5 188.3,-184.5 73.1,0 136.5,40.8 167.7,100.4 31.2,-59.6 94.6,-100.4 167.7,-100.4 104,0 188.3,82.6 188.3,184.5 0,201.2 -356,429.3 -356,429.3 z"
     id="path2"
     style="fill:#aaaaff;fill-opacity:1" />
  <path
     fill="#e6e6e6"
     d="m 679.7,201.1 c -73.1,0 -136.5,40.8 -167.7,100.4 -31.2,-59.6 -94.6,-100.4 -167.7,-100.4 -104,0 -188.3,82.6 -188.3,184.5 0,201.2 356,429.3 356,429.3 0,0 356,-228.1 356,-429.3 0,-101.9 -84.3,-184.5 -188.3,-184.5 z"
     id="path4"
     style="fill:#00ff00;fill-opacity:1" />
</svg>
