<?xml version="1.0" encoding="UTF-8" standalone="no"?>
<svg
   version="1.1"
   id="Layer_1"
   x="0px"
   y="0px"
   viewBox="0 0 130 130"
   xml:space="preserve"
   sodipodi:docname="cargo-container-icon.svg"
   width="130"
   height="130"
   inkscape:version="1.2.1 (9c6d41e, 2022-07-14)"
   xmlns:inkscape="http://www.inkscape.org/namespaces/inkscape"
   xmlns:sodipodi="http://sodipodi.sourceforge.net/DTD/sodipodi-0.dtd"
   xmlns="http://www.w3.org/2000/svg"
   xmlns:svg="http://www.w3.org/2000/svg"><defs
     id="defs68" /><sodipodi:namedview
     id="namedview66"
     pagecolor="#ffffff"
     bordercolor="#000000"
     borderopacity="0.25"
     inkscape:showpageshadow="2"
     inkscape:pageopacity="0"
     inkscape:pagecheckerboard="0"
     inkscape:deskcolor="#d1d1d1"
     showgrid="false"
     inkscape:zoom="6.0127389"
     inkscape:cx="62.700212"
     inkscape:cy="63.115996"
     inkscape:window-width="1920"
     inkscape:window-height="1027"
     inkscape:window-x="0"
     inkscape:window-y="62"
     inkscape:window-maximized="1"
     inkscape:current-layer="Layer_1" /><style
     type="text/css"
     id="style59">.st0{fill-rule:evenodd;clip-rule:evenodd;}</style><g
     id="g63"
     transform="translate(3.565,25.75)"><path
       style="display:inline;fill:#7ae818;fill-opacity:1;stroke-width:0.78843"
       d="m 50.725636,36.422669 9.147245,0.934952 -0.49894,34.323523 h -8.315678 z"
       id="path280"
       sodipodi:nodetypes="ccccc" /><path
       style="display:inline;fill:#7ae818;fill-opacity:1;stroke-width:0.980286"
       d="m 61.868643,16.880828 9.148244,0.825074 -0.167311,53.060518 h -8.315678 z"
       id="path280-3"
       sodipodi:nodetypes="ccccc" /><path
       style="display:inline;fill:#7ae818;fill-opacity:1;stroke-width:0.723703"
       d="m 73.177967,23.367054 5.65466,0.637286 -0.314147,45.930511 h -5.235798 z"
       id="path280-9"
       sodipodi:nodetypes="ccccc" /><path
       style="display:inline;fill:#7ae818;fill-opacity:1;stroke-width:0.621331"
       d="M 81.826272,37.004767 88.3125,37.758921 87.952154,67.273834 H 81.946387 Z"
       id="path280-0"
       sodipodi:nodetypes="ccccc" /><path
       style="display:inline;fill:#7ae818;fill-opacity:1;stroke-width:0.786877"
       d="m 89.809322,18.543961 6.1536,0.81159 -0.184792,47.918283 h -5.851773 z"
       id="path280-5"
       sodipodi:nodetypes="ccccc" /><path
       style="display:inline;fill:#7ae818;fill-opacity:1;stroke-width:0.662987"
       d="m 97.459746,26.360699 5.155724,0.622302 -0.12936,40.457147 h -4.927808 z"
       id="path280-2"
       sodipodi:nodetypes="ccccc" /><path
       style="display:inline;fill:#7ae818;fill-opacity:1;stroke-width:0.608763"
       d="m 104.11229,32.514302 5.48834,0.763144 -0.14783,31.834314 h -5.23579 z"
       id="path280-27"
       sodipodi:nodetypes="ccccc" /><path
       style="display:inline;fill:#7ae818;fill-opacity:1;stroke-width:0.676273"
       d="m 110.43221,22.202861 5.15572,0.627296 -0.12936,42.115288 h -4.92781 z"
       id="path280-37"
       sodipodi:nodetypes="ccccc" /><path
       style="display:inline;fill:#7ae818;fill-opacity:1;stroke-width:0.599697"
       d="m 116.25318,25.196504 4.82309,0.776629 -0.26795,36.311295 h -4.46582 z"
       id="path280-90"
       sodipodi:nodetypes="ccccc" /><path
       class="st0"
       d="m 48.17,0.36 73.7,13.39 c 0.54,0.1 1,0.45 1,1 V 63.6 c 0,0.55 -0.46,0.91 -1,1 l -73.7,13.47 c -0.54,0.1 -1,-0.45 -1,-1 V 1.36 c 0,-0.55 0.46,-1.1 1,-1 z M 0.69,7.06 10.72,5.39 V 72.98 L 0.69,71.28 C 0.31,71.21 0,70.97 0,70.59 V 7.75 C 0,7.37 0.31,7.13 0.69,7.06 Z M 14.6,4.74 26.04,2.83 V 75.58 L 14.6,73.65 Z M 29.93,2.19 43.04,0.01 c 0.37,-0.06 0.69,0.31 0.69,0.69 v 77.1 c 0,0.38 -0.31,0.75 -0.69,0.69 L 29.93,76.26 V 2.45 Z m 89.41,16.508941 V 60.25 h -1.3 V 18.2 Z M 57.63,9.83 V 69.89 H 53.74 V 8.63 Z m 10.65,0.99 V 68.3 H 64.71 V 10.36 Z m 9.53,1.54 V 66.69 H 74.57 V 11.75 Z m 8.5,1.33 V 65.52 H 83.39 V 13.01 Z m 7.84,1.26 v 49.13 h -2.6 V 14.41 Z m 7.23,0.91 V 62.97 H 99.11 V 15.34 Z m 6.48,1.18 v 44.92 h -1.95 V 16.43 Z m 6.04,0.687373 V 61.03 h -1.62 V 17.31 Z"
       id="path61"
       sodipodi:nodetypes="ccssccsscccccssccccccccssccccccccccccccccccccccccccccccccccccccccccccccccc" /></g></svg>
